<svg width="562" height="150" viewBox="0 0 562 150" fill="none" xmlns="http://www.w3.org/2000/svg">
<path d="M558.419 86.3744C557.118 81.1805 551.911 72.0912 537.592 64.3003C532.385 61.7033 518.067 59.1063 506.352 59.1063H468.603C456.887 59.1063 456.887 51.3155 456.887 50.017C458.189 40.9276 465.999 40.9276 465.999 40.9276H542.799C545.402 40.9276 550.609 38.3307 551.911 31.8382L561.023 3.27167H471.206C451.681 3.27167 433.457 4.57015 413.931 16.2565C408.725 20.1519 402.216 25.3458 399.613 30.5398C397.009 35.7337 394.406 42.2261 394.406 50.017V51.3155C394.406 77.2851 415.233 88.9714 421.742 90.2699C428.25 92.8668 434.758 94.1653 456.887 94.1653H485.525C485.525 94.1653 486.826 94.1653 488.128 94.1653C489.43 94.1653 492.033 95.4638 494.636 96.7623C495.938 98.0608 497.24 99.3593 497.24 103.255C497.24 105.852 497.24 113.643 484.223 112.344H407.423C399.613 112.344 398.311 116.24 397.009 118.836L389.199 150H480.318C505.05 150 529.782 148.702 546.704 131.821C555.816 122.732 558.419 116.24 561.023 101.956C561.023 96.7623 561.023 91.5684 558.419 86.3744Z" fill="#EEEEEE"/>
<path d="M167.918 0H166.617C147.091 0 135.376 12.9848 135.376 12.9848L0 148.027H101.532L110.644 112.968C110.644 109.072 106.739 109.072 106.739 109.072H92.4202L139.281 61.0286C140.583 59.7301 143.186 57.1332 147.091 57.1332H156.203C156.203 57.1332 158.807 57.1332 160.108 58.4316C160.108 59.7301 161.41 59.7301 161.41 62.3271L139.281 149.325H204.366L240.813 0H167.918Z" fill="#EEEEEE"/>
<path d="M295.489 112.071L325.428 1.69993H273.361H272.059H268.154C268.154 1.69993 259.042 0.401445 256.439 9.49081L221.293 149.727H361.876C368.384 148.428 370.988 144.533 370.988 141.936V140.637L377.496 113.369H295.489V112.071Z" fill="#EEEEEE"/>
</svg>
