<svg width="12" height="12" viewBox="0 0 12 12" fill="none" xmlns="http://www.w3.org/2000/svg">
<path d="M11.6785 5.21953C11.6782 5.2193 11.678 5.21906 11.6775 5.21859L6.7826 0.323672C6.57377 0.115078 6.2965 0 6.00143 0C5.70635 0 5.42885 0.114844 5.22025 0.323672L0.327677 5.21602C0.326036 5.21766 0.324395 5.2193 0.322755 5.22117C-0.105683 5.65219 -0.10498 6.35133 0.324864 6.78117C0.52127 6.97758 0.780723 7.09148 1.05799 7.10344C1.06924 7.10461 1.08049 7.10508 1.09197 7.10508H1.28697V10.7074C1.28697 11.4199 1.86705 12 2.58002 12H4.4951C4.68916 12 4.84666 11.8425 4.84666 11.6484V8.82422C4.84666 8.49891 5.11127 8.2343 5.43658 8.2343H6.56627C6.89158 8.2343 7.15619 8.49891 7.15619 8.82422V11.6484C7.15619 11.8427 7.31346 12 7.50775 12H9.42283C10.1358 12 10.7159 11.4199 10.7159 10.7072V7.10484H10.8968C11.1919 7.10484 11.4692 6.99 11.678 6.78117C12.1081 6.35062 12.1083 5.65031 11.6785 5.21953Z" fill="#006B99"/>
</svg>
