<svg width="19" height="18" viewBox="0 0 19 18" fill="none" xmlns="http://www.w3.org/2000/svg">
<path d="M17.8295 17.0433L13.4464 12.7707C14.1331 12.086 14.6883 11.2747 15.0731 10.3601C15.6429 9.00003 15.789 7.5227 15.5016 6.08757C15 3.57845 13.2321 1.51019 10.7727 0.548752C9.3604 0.00471812 7.82631 -0.14067 6.33118 0.140727C4.78735 0.426813 3.38963 1.14437 2.27924 2.21368C0.808462 3.63473 -0.00484838 5.52947 2.17459e-05 7.53677C0.00489187 9.54406 0.818202 11.4341 2.29872 12.8552C3.03898 13.5727 3.91073 14.1261 4.88476 14.506C5.82469 14.8718 6.81332 15.0547 7.82631 15.0547H7.83118C8.3328 15.0547 8.83442 15.0078 9.32631 14.9187C10.5341 14.6936 11.6396 14.2106 12.5844 13.5164L17.0162 17.8312L17.026 17.8406C17.138 17.9484 17.2841 18 17.4302 18C17.5812 18 17.7321 17.9438 17.8442 17.8312C18.0584 17.6108 18.0584 17.259 17.8295 17.0433ZM11.5763 12.8833C10.8458 13.357 10.0422 13.6853 9.1802 13.8541C8.2841 14.0323 7.37339 14.0276 6.47728 13.8541C6.04871 13.7697 5.62501 13.6431 5.22079 13.4789C4.02274 12.9912 3.00002 12.1798 2.27437 11.1433C1.78249 10.4398 1.44158 9.666 1.26625 8.83588C1.08606 7.97293 1.08606 7.09591 1.26625 6.23296C1.35392 5.82025 1.48541 5.41222 1.65586 5.02296C2.16236 3.86923 3.00489 2.88434 4.08118 2.18554C4.8117 1.71186 5.61527 1.38356 6.47728 1.21472C6.92047 1.12561 7.37339 1.08341 7.82631 1.08341C8.27923 1.08341 8.73215 1.12561 9.17533 1.21472C9.6039 1.29914 10.0276 1.42577 10.4318 1.58992C11.6299 2.07767 12.6526 2.88903 13.3783 3.92551C13.8701 4.629 14.211 5.40284 14.3864 6.23296C14.5666 7.09591 14.5666 7.97293 14.3864 8.83588C14.2987 9.2486 14.1672 9.65662 13.9968 10.0459C13.4951 11.1996 12.6575 12.1798 11.5763 12.8833Z" fill="white"/>
</svg>
