<svg width="13" height="12" viewBox="0 0 13 12" fill="none" xmlns="http://www.w3.org/2000/svg">
<path d="M0.730469 1.44C0.730469 0.651429 1.3819 0 2.17047 0C2.95904 0 3.61047 0.651429 3.61047 1.44C3.61047 2.22857 2.95904 2.88 2.17047 2.88C1.3819 2.88 0.730469 2.22857 0.730469 1.44ZM0.936183 12V3.97714H3.43904V12H0.936183ZM10.2619 12V8.09143C10.2619 7.16571 10.2276 5.96571 8.95904 5.96571C7.65618 5.96571 7.45047 6.96 7.45047 8.02286V12H4.9819V3.97714H7.3819V5.07429H7.41618C7.75904 4.45714 8.54761 3.77143 9.7819 3.77143C12.2848 3.77143 12.7648 5.41714 12.7648 7.57714V12H10.2619Z" fill="#006B99"/>
</svg>
