<svg width="16" height="12" viewBox="0 0 16 12" fill="none" xmlns="http://www.w3.org/2000/svg">
<path d="M14.2163 3.39692C14.2163 7.38462 11.1886 12 5.61325 12C3.91478 12 2.29017 11.52 0.960938 10.6338C1.2194 10.6708 1.44094 10.6708 1.6994 10.6708C3.10248 10.6708 4.43171 10.1908 5.46555 9.37846C4.13632 9.34154 3.02863 8.49231 2.62248 7.27385C2.80709 7.31077 2.99171 7.31077 3.17632 7.31077C3.43478 7.31077 3.73017 7.27385 3.98863 7.2C2.58555 6.90462 1.55171 5.68615 1.55171 4.24615V4.20923C1.95786 4.43077 2.43786 4.57846 2.91786 4.57846C2.10555 4.02462 1.55171 3.10154 1.55171 2.06769C1.55171 1.51385 1.6994 0.996923 1.95786 0.553846C3.43478 2.4 5.68709 3.58154 8.19786 3.72923C8.16094 3.50769 8.12401 3.28615 8.12401 3.02769C8.12401 1.36615 9.49017 0 11.1517 0C12.0379 0 12.8132 0.369231 13.3671 0.96C14.0686 0.812308 14.6963 0.590769 15.2871 0.221538C15.0656 0.923077 14.5856 1.51385 13.9579 1.88308C14.5486 1.80923 15.1394 1.66154 15.6932 1.40308C15.2871 1.99385 14.7702 2.54769 14.1794 2.95385C14.2163 3.13846 14.2163 3.24923 14.2163 3.39692Z" fill="#7E7E7E"/>
</svg>
