<svg width="13" height="9" viewBox="0 0 13 9" fill="none" xmlns="http://www.w3.org/2000/svg">
<path d="M5.00672 5.02879C1.89732 2.77159 1.65932 2.57198 0.945305 2.01152C0.807109 1.90403 0.730334 1.7428 0.730334 1.5739V1.1286C0.730334 0.506718 1.23705 0 1.85893 0H11.6094C12.2313 0 12.738 0.506718 12.738 1.1286V1.5739C12.738 1.75048 12.6612 1.91171 12.523 2.01919C11.809 2.57965 11.571 2.77927 8.46162 5.03647C8.07006 5.32054 7.28695 6.01919 6.74185 6.00384C6.18906 6.01152 5.40595 5.31286 5.00672 5.02879ZM12.7303 3.07869V7.86948C12.7303 8.49136 12.2236 8.99808 11.6017 8.99808H1.85125C1.22937 8.99808 0.722656 8.49136 0.722656 7.86948V3.08637C0.722656 2.97121 0.853174 2.90211 0.952982 2.97889C1.48273 3.37812 2.18139 3.90019 4.5691 5.63532C5.06047 5.99616 5.89732 6.75624 6.72649 6.74856C7.56334 6.75624 8.41555 5.98081 8.89156 5.63532C11.2793 3.90019 11.9779 3.37812 12.5 2.97121C12.5921 2.90211 12.7303 2.96353 12.7303 3.07869Z" fill="#006B99"/>
</svg>
